<svg width="29" height="23" viewBox="0 0 29 23" fill="none" xmlns="http://www.w3.org/2000/svg">
<path d="M0.5 1.5H4.06175C4.9082 1.5 5.66299 2.03286 5.94635 2.83047L6.76555 5.13636M6.76555 5.13636L10.5402 15.7612C10.8891 16.7433 11.9337 17.2928 12.9407 17.024L26.016 13.5326C26.8912 13.2989 27.5 12.5062 27.5 11.6003V7.13636C27.5 6.03179 26.6046 5.13636 25.5 5.13636H6.76555Z" stroke="#16191E" stroke-width="1.6"/>
<path d="M6.36667 20.5C6.36667 21.6782 7.32179 22.6333 8.5 22.6333C9.67821 22.6333 10.6333 21.6782 10.6333 20.5C10.6333 19.3218 9.67821 18.3667 8.5 18.3667C7.32179 18.3667 6.36667 19.3218 6.36667 20.5ZM7.5 20.9H8.5V20.1H7.5V20.9Z" fill="#16191E"/>
<path d="M19.3667 20.5C19.3667 21.6782 20.3218 22.6333 21.5 22.6333C22.6782 22.6333 23.6333 21.6782 23.6333 20.5C23.6333 19.3218 22.6782 18.3667 21.5 18.3667C20.3218 18.3667 19.3667 19.3218 19.3667 20.5ZM20.5 20.9H21.5V20.1H20.5V20.9Z" fill="#16191E"/>
</svg>
