<svg width="17" height="16" viewBox="0 0 17 16" fill="none" xmlns="http://www.w3.org/2000/svg">
<path d="M0.0110077 14.9483C0.136831 13.2263 0.259778 11.5743 0.376973 9.92233C0.394229 9.68201 0.513581 9.58692 0.736467 9.54637C2.86515 9.15764 4.9936 8.76449 7.12181 8.36691C7.19359 8.36456 7.26401 8.3462 7.32816 8.31309C7.41444 8.24749 7.54026 8.15313 7.5381 8.07352C7.53595 7.9939 7.41228 7.86416 7.32241 7.84205C6.88167 7.73442 6.43446 7.65259 5.98796 7.56561C4.22788 7.22135 2.46492 6.87267 0.704832 6.54168C0.43593 6.49082 0.334553 6.34707 0.318735 6.09938C0.210887 4.38473 0.103038 2.67008 0.00237965 0.954696C-0.022066 0.533774 0.139707 0.457108 0.586199 0.653932C3.76797 2.05946 6.94973 3.46524 10.1315 4.87126C12.2928 5.82516 14.4538 6.78053 16.6146 7.73737C16.7584 7.80224 16.872 7.95115 17 8.06172C16.8778 8.17819 16.7742 8.34184 16.6297 8.40524C11.3265 10.7357 6.02032 13.06 0.711303 15.3781C0.0361727 15.67 -0.0177518 15.6324 0.0110077 14.9483Z" fill="#3F454A"/>
</svg>
