<svg width="23" height="24" viewBox="0 0 23 24" fill="none" xmlns="http://www.w3.org/2000/svg">
<path d="M11.5 7.3337V22.5M11.5 7.3337C11.078 5.59472 10.3514 4.10802 9.41486 3.06749C8.47836 2.02697 7.37547 1.4809 6.25 1.50051C5.47645 1.50051 4.73459 1.80779 4.18761 2.35476C3.64062 2.90173 3.33333 3.64358 3.33333 4.41711C3.33333 5.19064 3.64062 5.93248 4.18761 6.47945C4.73459 7.02642 5.47645 7.3337 6.25 7.3337M11.5 7.3337C11.922 5.59472 12.6486 4.10802 13.5851 3.06749C14.5216 2.02697 15.6245 1.4809 16.75 1.50051C17.5235 1.50051 18.2654 1.80779 18.8124 2.35476C19.3594 2.90173 19.6667 3.64358 19.6667 4.41711C19.6667 5.19064 19.3594 5.93248 18.8124 6.47945C18.2654 7.02642 17.5235 7.3337 16.75 7.3337M19.6667 12.0003V20.1667C19.6667 20.7855 19.4208 21.379 18.9832 21.8166C18.5457 22.2542 17.9522 22.5 17.3333 22.5H5.66667C5.04783 22.5 4.45434 22.2542 4.01675 21.8166C3.57917 21.379 3.33333 20.7855 3.33333 20.1667V12.0003M1 8.50034C1 8.19093 1.12292 7.89419 1.34171 7.6754C1.5605 7.45662 1.85725 7.3337 2.16667 7.3337H20.8333C21.1428 7.3337 21.4395 7.45662 21.6583 7.6754C21.8771 7.89419 22 8.19093 22 8.50034V10.8336C22 11.143 21.8771 11.4398 21.6583 11.6586C21.4395 11.8773 21.1428 12.0003 20.8333 12.0003H2.16667C1.85725 12.0003 1.5605 11.8773 1.34171 11.6586C1.12292 11.4398 1 11.143 1 10.8336V8.50034Z" stroke="#16191E" stroke-width="1.6" stroke-miterlimit="10"/>
</svg>
