<svg width="77" height="15" viewBox="0 0 77 15" fill="none" xmlns="http://www.w3.org/2000/svg">
<path fill-rule="evenodd" clip-rule="evenodd" d="M22.8401 10.4503C22.1694 10.4536 21.5131 10.2557 20.9565 9.8823C20.3936 9.51167 19.9579 8.97803 19.7081 8.35311C19.4465 7.73219 19.3779 7.04726 19.511 6.38697C19.6466 5.72966 19.9654 5.12386 20.4308 4.63917C20.9016 4.15887 21.5065 3.83113 22.1667 3.69865C22.827 3.56617 23.5119 3.63509 24.1323 3.89643C24.7508 4.15897 25.2823 4.59062 25.6653 5.14157C26.0992 5.79454 26.2947 6.57652 26.2189 7.35624C26.1431 8.13595 25.8007 8.86593 25.2492 9.42363C24.9399 9.75066 24.5663 10.0106 24.1518 10.1872C23.7373 10.3639 23.2909 10.4534 22.8401 10.4503ZM22.8401 0.0733231C21.6616 0.0676447 20.5009 0.360835 19.4671 0.925363C18.4334 1.48796 17.5585 2.30124 16.923 3.29013C16.2876 4.27902 15.9122 5.41164 15.8314 6.58345C15.7439 7.75518 15.9628 8.92951 16.4666 9.99161C17.2185 11.6003 18.5558 12.8635 20.2072 13.5248C21.8586 14.1861 23.7003 14.196 25.3588 13.5525C26.4605 13.1297 27.4338 12.4298 28.1841 11.5208C27.7403 12.3543 27.0828 13.0553 26.2786 13.5525V13.9239H29.8268V7.02053C29.8197 5.17642 29.0806 3.41019 27.7712 2.10825C26.4619 0.806302 24.689 0.0746379 22.8401 0.0733231ZM56.4377 10.5159H51.8383V8.2438H56.3501C56.9196 8.2438 57.5766 8.7682 57.5766 9.3799C57.5766 9.81685 57.2262 10.5159 56.4377 10.5159ZM51.8164 3.61238H55.6931C56.1092 3.61238 56.81 4.04933 56.81 4.72661C56.81 5.27273 56.372 5.86258 55.5835 5.86258H51.8383L51.8164 3.61238ZM59.5916 6.64903C60.4238 5.38204 60.5115 3.63424 59.745 2.32352C59.3704 1.67312 58.8252 1.13687 58.1679 0.772471C57.5189 0.405294 56.7894 0.202703 56.0435 0.182493H48.2901V13.9457H56.9633C59.6791 13.9457 61.1904 11.6955 61.1904 9.81685C61.1904 8.02547 60.1611 7.10798 59.5916 6.64903ZM44.7859 5.25087C45.9467 8.37497 46.0124 11.2369 46.0124 13.9457H42.4204C42.4204 11.7393 42.3328 9.72941 41.8729 7.91616C41.2596 5.49121 40.0988 3.72168 39.0256 3.72168C37.9524 3.72168 36.7917 5.49107 36.1783 7.91616C35.7185 9.72941 35.6308 11.6737 35.6308 13.9457H32.0389C32.0389 11.4772 32.1045 8.39683 33.2654 5.25087C34.3605 2.34538 36.3754 0.0733231 39.0256 0.0733231C41.6758 0.0733231 43.6907 2.34538 44.7859 5.25087ZM14.4516 0.182493V1.62451C14.4481 2.66669 14.2164 3.69553 13.7726 4.63903C13.3301 5.58112 12.6785 6.41042 11.8672 7.06412C12.6785 7.71774 13.3301 8.54695 13.7726 9.48894C14.2164 10.4325 14.4482 11.4615 14.4516 12.5037V13.9457H10.8597V12.1324C10.8597 11.6905 10.7724 11.2531 10.6029 10.8449C10.4334 10.4367 10.185 10.0658 9.87178 9.7534C9.55857 9.44099 9.18674 9.19317 8.77752 9.02409C8.3683 8.85502 7.92969 8.768 7.48675 8.768C7.04381 8.768 6.60521 8.85502 6.19599 9.02409C5.78676 9.19317 5.41493 9.44099 5.10173 9.7534C4.78852 10.0658 4.54007 10.4367 4.37057 10.8449C4.20106 11.2531 4.11382 11.6905 4.11382 12.1324V13.9456H0.5V12.5039C0.503426 11.4616 0.73517 10.4327 1.17901 9.48907C1.62148 8.54703 2.27306 7.71778 3.08441 7.06412C2.27306 6.41046 1.62148 5.58121 1.17901 4.63917C0.73517 3.69558 0.503426 2.66665 0.5 1.62437V0.182493H4.0919V1.99574C4.0919 2.43756 4.17914 2.87505 4.34865 3.28323C4.51816 3.69141 4.7666 4.0623 5.07981 4.37471C5.39302 4.68712 5.76485 4.93494 6.17407 5.10401C6.58329 5.27309 7.0219 5.36011 7.46484 5.36011C7.90778 5.36011 8.34638 5.27309 8.7556 5.10401C9.16483 4.93494 9.53666 4.68712 9.84986 4.37471C10.1631 4.0623 10.4115 3.69141 10.581 3.28323C10.7505 2.87505 10.8378 2.43756 10.8378 1.99574V0.182493H14.4516ZM69.5132 10.4504C68.8425 10.4536 68.1862 10.2557 67.6297 9.8823C67.0668 9.51167 66.6311 8.97803 66.3813 8.35311C66.1197 7.73219 66.051 7.04725 66.1841 6.38697C66.3198 5.72966 66.6386 5.12386 67.104 4.63917C67.5748 4.15889 68.1797 3.83117 68.8399 3.6987C69.5 3.56622 70.1849 3.63512 70.8053 3.89643C71.4239 4.15895 71.9554 4.5906 72.3385 5.14157C72.7724 5.79454 72.9679 6.57652 72.8921 7.35624C72.8163 8.13595 72.4739 8.86593 71.9224 9.42363C71.6131 9.75066 71.2395 10.0106 70.825 10.1872C70.4105 10.3639 69.9639 10.4536 69.5132 10.4504ZM76.5 7.02053C76.4989 5.37735 75.9085 3.78876 74.8354 2.542C74.0401 1.61079 73.0135 0.90433 71.8584 0.493379C70.7032 0.0824269 69.4602 -0.0185975 68.2536 0.200422C67.047 0.419442 65.9193 0.950818 64.9833 1.74134C64.0474 2.53186 63.3361 3.55377 62.9207 4.70475C62.3693 6.25341 62.377 7.94547 62.9425 9.48907C63.5066 11.0315 64.6008 12.3243 66.0307 13.1376C67.4531 13.9576 69.1198 14.2517 70.7379 13.968C72.356 13.6843 73.8223 12.8411 74.8791 11.5864C74.4353 12.4198 73.7778 13.1209 72.9737 13.6181V13.9895H76.5V7.02053Z" fill="black"/>
</svg>
