<svg width="37" height="23" viewBox="0 0 37 23" fill="none" xmlns="http://www.w3.org/2000/svg">
<path fill-rule="evenodd" clip-rule="evenodd" d="M14.143 11.5622C14.143 13.2785 14.5432 14.971 15.3118 16.5054C16.0804 18.04 17.1961 19.3741 18.5704 20.402C16.9269 21.6404 14.9709 22.3961 12.9219 22.5844C10.8729 22.7726 8.81235 22.386 6.97054 21.4679C5.12873 20.5497 3.58002 19.1364 2.49707 17.3867C1.41413 15.6369 0.840332 13.6199 0.840332 11.5622C0.840332 9.50454 1.41413 7.48758 2.49707 5.73787C3.58002 3.98806 5.12873 2.57474 6.97054 1.65658C8.81235 0.738514 10.8729 0.351821 12.9219 0.540075C14.9709 0.728417 16.9269 1.48409 18.5704 2.72244C17.1961 3.75031 16.0804 5.08456 15.3118 6.61901C14.5432 8.15347 14.143 9.84607 14.143 11.5622Z" fill="black"/>
<path opacity="0.3" fill-rule="evenodd" clip-rule="evenodd" d="M25.2114 22.6308C22.8144 22.631 20.4821 21.8484 18.5703 20.4021C19.9446 19.3743 21.0603 18.0401 21.8289 16.5056C22.5975 14.9711 22.9977 13.2785 22.9977 11.5623C22.9977 9.84613 22.5975 8.15353 21.8289 6.61898C21.0603 5.08453 19.9446 3.75037 18.5703 2.7225C19.972 1.66922 21.6049 0.964287 23.3324 0.66579C25.06 0.367382 26.8345 0.483914 28.509 1.00591C30.1825 1.5279 31.7091 2.4403 32.9612 3.66794C34.2133 4.89557 35.1554 6.40328 35.7106 8.06675C36.2649 9.73022 36.4163 11.5017 36.1525 13.2352C35.8877 14.9687 35.2156 16.6146 34.1903 18.037C33.1649 19.4596 31.8154 20.6179 30.2543 21.4166C28.6932 22.2154 26.9647 22.6315 25.2114 22.6308Z" fill="black"/>
<path opacity="0.65" fill-rule="evenodd" clip-rule="evenodd" d="M14.1431 11.5624C14.1431 9.84629 14.5433 8.15369 15.3119 6.61923C16.0805 5.08478 17.1962 3.75061 18.5705 2.72266C19.9448 3.75053 21.0605 5.08468 21.8291 6.61914C22.5977 8.15368 22.9979 9.84629 22.9979 11.5624C22.9979 13.2787 22.5977 14.9713 21.8291 16.5057C21.0605 18.0403 19.9448 19.3744 18.5705 20.4022C17.1962 19.3744 16.0805 18.0402 15.3119 16.5057C14.5433 14.9712 14.1431 13.2787 14.1431 11.5624Z" fill="black"/>
</svg>
