<svg width="59" height="16" viewBox="0 0 59 16" fill="none" xmlns="http://www.w3.org/2000/svg">
<path fill-rule="evenodd" clip-rule="evenodd" d="M14.9525 15.0889V6.14554H14.5575L11.724 15.0889H8.35915H8.34942L5.52564 6.14554H5.13333V15.0889H0.30127V0.0357057H5.14046C5.74348 0.0328722 6.33229 0.224227 6.81842 0.581432C7.30455 0.938547 7.66227 1.44265 7.84026 2.01919L9.82908 8.97643H10.2479L12.2402 2.01919C12.4191 1.44159 12.7786 0.936866 13.2665 0.579661C13.7544 0.222457 14.3441 0.031721 14.9489 0.0357057H19.7881V15.0889H14.9489H14.9525Z" fill="black"/>
<path fill-rule="evenodd" clip-rule="evenodd" d="M33.4616 15.0889V6.22429H33.08L29.7798 13.6508C29.5859 14.0799 29.2724 14.4439 28.8766 14.699C28.4799 14.954 28.0195 15.0894 27.5484 15.0889H23.3193V0.0356475H28.1895V8.90023H28.5888L31.9306 1.46216C31.9395 1.44357 31.9475 1.42408 31.9564 1.40549V1.40018C32.1583 0.990022 32.4717 0.644769 32.8604 0.403563C33.2483 0.162357 33.6972 0.0349391 34.1541 0.0356475H38.3832V15.0889H33.4616Z" fill="black"/>
<path fill-rule="evenodd" clip-rule="evenodd" d="M52.6628 10.6687H46.8611V15.089H41.936V7.11963H58.3007C57.8128 8.19886 57.0176 9.11072 56.0152 9.74172C55.0129 10.3727 53.8467 10.6951 52.6628 10.6687Z" fill="black"/>
<path opacity="0.55" fill-rule="evenodd" clip-rule="evenodd" d="M58.6103 5.34855H49.2498C45.1846 5.34855 41.8047 2.89399 41.0928 0.0356445H53.1008C56.2097 0.0356445 58.7289 2.19003 58.7289 4.49406C58.7289 4.78299 58.6891 5.0705 58.6103 5.34855Z" fill="black"/>
</svg>
