<svg width="24" height="24" viewBox="0 0 24 24" fill="none" xmlns="http://www.w3.org/2000/svg">
<path d="M20.6444 11.599C20.6241 16.4724 16.6677 20.4169 11.7896 20.4169C6.89908 20.4169 2.93477 16.4524 2.93477 11.5621C2.93477 6.67172 6.89908 2.70723 11.7896 2.70723C13.588 2.70723 15.2616 3.24366 16.6589 4.16518L18.8248 2.45035C16.8794 0.945917 14.439 0.0507812 11.7896 0.0507812C5.43184 0.0507812 0.27832 5.20456 0.27832 11.5621C0.27832 17.9196 5.43184 23.0734 11.7896 23.0734C18.1474 23.0734 23.3009 17.9196 23.3009 11.5621C23.3009 10.9018 23.2451 10.2544 23.1388 9.62445L20.6444 11.599Z" fill="black"/>
<path d="M22.2747 6.8039C21.8851 5.94693 21.3937 5.1461 20.8155 4.41699L11.7897 11.5624L7.3623 8.79527V12.3372L11.7897 15.1043L22.2747 6.8039Z" fill="black"/>
</svg>
