<svg width="77" height="11" viewBox="0 0 77 11" fill="none" xmlns="http://www.w3.org/2000/svg">
<path d="M7.67439 9.77573V2.85178H11.8267V0.331955H0.5V2.85178H4.65143V9.77573H7.67439ZM16.0595 0.331955H13.0364V9.77573H16.0595V0.331955ZM18.2722 0.331955V9.77573H21.0504V4.55754L26.2374 9.77573H28.8089V0.331955H26.0342V5.51047L20.9708 0.331955H18.2722ZM34.7559 6.20466L38.2376 9.77573H42.1345L37.2743 4.85506L41.9489 0.331955H38.2817L34.7559 3.88317H33.9518V0.331955H31.0269V9.77573H33.9518V6.20466H34.7559ZM48.1434 0.0732422C44.2111 0.0732422 41.8606 2.25589 41.8606 5.07324C41.8606 7.89145 44.2111 10.0732 48.1434 10.0732C52.058 10.0732 54.4085 7.89145 54.4085 5.07324C54.4085 2.25589 52.058 0.0732422 48.1434 0.0732422ZM48.1434 7.77158C46.1905 7.77158 44.9357 6.62119 44.9357 5.07324C44.9357 3.52616 46.1905 2.39473 48.1434 2.39473C50.0786 2.39473 51.3511 3.52616 51.3511 5.07324C51.3511 6.62119 50.0786 7.77158 48.1434 7.77158ZM65.4985 0.331955H55.8047V9.77573H58.7208V6.48235H65.0742V4.39887H58.7208V2.73278H65.4985V0.331955ZM76.5 0.331955H66.8063V9.77573H69.7223V6.48235H76.0759V4.39887H69.7223V2.73278H76.5V0.331955Z" fill="black"/>
</svg>
