<svg width="48" height="17" viewBox="0 0 48 17" fill="none" xmlns="http://www.w3.org/2000/svg">
<path fill-rule="evenodd" clip-rule="evenodd" d="M44.2186 16.1301C44.2186 16.1301 43.8724 14.0173 43.7564 13.4878H38.7507C38.6126 13.9022 37.921 16.1301 37.921 16.1301H33.8372L39.6282 2.32095C39.772 1.91053 40.0515 1.56138 40.4207 1.33116C40.7891 1.10093 41.2256 1.00344 41.6578 1.05471H44.6799L47.8402 16.1301H44.2186ZM42.2112 6.41632L41.934 5.12705C41.7499 5.70261 41.4027 6.6005 41.4266 6.57747C41.4266 6.57747 40.1808 9.91397 39.8815 10.7879H43.1108C42.9515 10.0264 42.2112 6.41632 42.2112 6.41632ZM33.8141 4.53023C32.9023 4.1183 31.908 3.92137 30.908 3.95467C29.3619 3.95467 28.6695 4.59841 28.6465 5.24305C28.6465 5.95675 29.4779 6.41631 30.8602 7.10256C33.0987 8.16071 34.1365 9.47211 34.1134 11.197C34.0904 14.3033 31.4375 16.3275 27.3306 16.3275C25.8468 16.3325 24.3752 16.0598 22.9918 15.5235L23.5231 12.141L24.0543 12.3942C25.1871 12.951 26.4372 13.227 27.699 13.1991C28.8298 13.1991 30.0287 12.7387 30.0526 11.7266C30.0526 11.0598 29.5452 10.5754 28.0222 9.84048C26.5461 9.12678 24.5847 7.93049 24.6078 5.76725C24.6308 2.84516 27.3297 0.797036 31.1825 0.797036C32.3791 0.790218 33.5672 1.00025 34.689 1.41687L34.1577 4.68519L33.8141 4.53023ZM16.6517 16.1301L19.0965 1.05471H22.9927L20.5487 16.1301H16.6517ZM7.26557 16.1301L3.99902 3.85461C4.52952 4.12211 5.03203 4.44186 5.49903 4.80916C6.9182 5.9687 8.13202 7.35891 9.08967 8.92134L9.15431 9.24632L9.5696 11.3175L13.3984 1.05471H17.5283L11.3919 16.1301H7.26646H7.26557Z" fill="black"/>
<path opacity="0.35" fill-rule="evenodd" clip-rule="evenodd" d="M5.49535 4.80955C5.02861 4.4419 4.52601 4.12215 3.99534 3.855L3.77309 3.01998C2.67013 2.38748 1.49403 1.89215 0.270996 1.54478V1.07812H6.26041C6.61876 1.07901 6.96605 1.20244 7.24454 1.42798C7.52302 1.65351 7.71605 1.9675 7.79141 2.3178L9.08776 8.91819C8.12922 7.35682 6.91478 5.96794 5.49535 4.80955Z" fill="black"/>
</svg>
